<svg width="120" height="120" viewBox="0 0 120 120" fill="none" xmlns="http://www.w3.org/2000/svg">
<g filter="url(#filter0_i_35_29)">
<path d="M120 60C120 93.0968 93.0968 120 60 120C26.9032 120 0 93.0968 0 60C0 26.9032 26.9032 0 60 0C93.0968 0 120 26.9032 120 60ZM82.4032 73.3548C82.4032 60.7742 68.9516 57.1935 63.1452 55.5484C52.1613 52.5 51.2419 48.5323 51.3871 46.5C51.7742 41.5645 57.1935 40.3548 62.2258 41.4194C66.1935 42.2903 70.2581 44.6129 72.5323 46.4032L79.7419 37.9839C76.2097 35.5645 71.6613 32.4194 65.0323 31.1613V22.9839H54.5323V30.871C44.371 31.6452 37.5968 38.0323 37.5968 46.7903C37.5968 55.3548 43.7903 59.371 49.9839 62.371C55.1613 64.8387 69.5806 67.4032 68.7581 73.9355C68.3226 77.4677 64.5484 80.0806 58.3064 79.3064C52.8871 78.629 47.0806 74.0806 47.0806 74.0806L39.1452 81.9677C43.9355 85.8387 49.0161 88.2581 54.5323 89.371V97.0645H65.0323V89.7581C75.0484 88.6452 82.4032 81.8226 82.4032 73.3548Z" fill="black" fill-opacity="0.1"/>
</g>
<path d="M63.4178 54.5862L63.4126 54.5848C57.9991 53.0824 55.2173 51.3913 53.8091 49.9454C52.4513 48.5513 52.3299 47.3452 52.3843 46.5749C52.5438 44.5552 53.6901 43.3137 55.4254 42.6423C57.2197 41.9481 59.6208 41.8911 62.0148 42.3968C65.798 43.2281 69.7258 45.4666 71.9137 47.189L72.6677 47.7825L73.2918 47.0537L80.5015 38.6343L81.226 37.7883L80.307 37.1588L80.1867 37.0764C76.8094 34.7628 72.3721 31.723 66.0322 30.3444V22.9839V21.9839H65.0322H54.5323H53.5323V22.9839V29.9602C43.4783 31.0757 36.5968 37.6665 36.5968 46.7903C36.5968 55.9996 43.3338 60.261 49.5479 63.271L49.5536 63.2737C50.894 63.9125 52.7941 64.5463 54.7983 65.2148L54.9008 65.249C56.9744 65.9407 59.198 66.6845 61.2293 67.5491C63.2728 68.419 65.0357 69.3765 66.2269 70.4596C67.4008 71.527 67.9168 72.6125 67.7659 73.8105L67.7656 73.8131C67.5906 75.2325 66.7496 76.5055 65.2203 77.3638C63.6749 78.2311 61.399 78.6824 58.4295 78.314C55.918 77.9999 53.2498 76.772 51.159 75.5722C50.1246 74.9786 49.2541 74.4051 48.6431 73.9806C48.338 73.7687 48.0985 73.5945 47.9367 73.4744C47.8558 73.4144 47.7944 73.3679 47.754 73.3371L47.7093 73.3027L47.6992 73.2949L47.6973 73.2934L47.6972 73.2933L47.6971 73.2932L47.697 73.2932L47.0021 72.7488L46.3757 73.3714L38.4402 81.2585L37.6493 82.0446L38.5166 82.7455C43.1917 86.5233 48.157 88.9655 53.5323 90.1797V97.0645V98.0645H54.5323H65.0322H66.0322V97.0645V90.6376C75.9527 89.1886 83.4032 82.2164 83.4032 73.3548C83.4032 66.6284 79.7762 62.3106 75.4989 59.5138C71.4203 56.8471 66.6678 55.5045 63.7502 54.6803C63.6366 54.6482 63.5257 54.6168 63.4178 54.5862ZM119 60C119 92.5445 92.5445 119 60 119C27.4555 119 1 92.5445 1 60C1 27.4555 27.4555 1 60 1C92.5445 1 119 27.4555 119 60Z" stroke="white" stroke-width="2"/>
<defs>
<filter id="filter0_i_35_29" x="0" y="0" width="120" height="120" filterUnits="userSpaceOnUse" color-interpolation-filters="sRGB">
<feFlood flood-opacity="0" result="BackgroundImageFix"/>
<feBlend mode="normal" in="SourceGraphic" in2="BackgroundImageFix" result="shape"/>
<feColorMatrix in="SourceAlpha" type="matrix" values="0 0 0 0 0 0 0 0 0 0 0 0 0 0 0 0 0 0 127 0" result="hardAlpha"/>
<feOffset/>
<feGaussianBlur stdDeviation="15.5"/>
<feComposite in2="hardAlpha" operator="arithmetic" k2="-1" k3="1"/>
<feColorMatrix type="matrix" values="0 0 0 0 1 0 0 0 0 1 0 0 0 0 1 0 0 0 0.31 0"/>
<feBlend mode="normal" in2="shape" result="effect1_innerShadow_35_29"/>
</filter>
</defs>
</svg>
