<svg width="120" height="120" viewBox="0 0 120 120" fill="none" xmlns="http://www.w3.org/2000/svg">
<g filter="url(#filter0_i_36_33)">
<path d="M106.306 0H103.197V8.92522C103.197 11.8856 100.889 14.2803 98.0594 14.2803C95.23 14.2803 92.93 11.8856 92.93 8.92522V0H84.1622V8.92522C84.1622 11.8856 81.858 14.2803 79.0286 14.2803C76.195 14.2803 73.8993 11.8856 73.8993 8.92522V0H65.1315V8.92522C65.1315 11.8856 62.8315 14.2803 59.9979 14.2803C57.1642 14.2803 54.8643 11.8856 54.8643 8.92522V0H46.0965V8.92522C46.0965 11.8856 43.8008 14.2803 40.9671 14.2803C38.1377 14.2803 35.8335 11.8856 35.8335 8.92522V0H27.0658V8.92522C27.0658 11.8856 24.77 14.2803 21.9364 14.2803C19.107 14.2803 16.8028 11.8856 16.8028 8.92522V0H13.6896C6.13745 0 0 6.40672 0 14.2892V105.711C0 113.593 6.13745 120 13.6896 120H106.315C113.863 120 120 113.593 120 105.711V14.2892C119.996 6.40672 113.858 0 106.306 0ZM34.1393 84.3035C30.6322 84.3035 27.7858 81.3344 27.7858 77.6759C27.7858 74.0174 30.6322 71.0483 34.1393 71.0483C37.6464 71.0483 40.4927 74.0174 40.4927 77.6759C40.4927 81.3344 37.6464 84.3035 34.1393 84.3035ZM34.1393 66.6298C30.6322 66.6298 27.7858 63.6607 27.7858 60.0022C27.7858 56.3438 30.6322 53.3746 34.1393 53.3746C37.6464 53.3746 40.4927 56.3438 40.4927 60.0022C40.4927 63.6607 37.6464 66.6298 34.1393 66.6298ZM34.1393 48.9561C30.6322 48.9561 27.7858 45.987 27.7858 42.3285C27.7858 38.6701 30.6322 35.7009 34.1393 35.7009C37.6464 35.7009 40.4927 38.6701 40.4927 42.3285C40.4927 45.987 37.6464 48.9561 34.1393 48.9561ZM87.9658 82.0943H53.1997C50.8616 82.0943 48.964 80.1193 48.964 77.6759C48.964 75.2325 50.8616 73.2575 53.1997 73.2575H87.9658C90.3081 73.2575 92.2015 75.2325 92.2015 77.6759C92.2015 80.1193 90.3039 82.0943 87.9658 82.0943ZM87.9658 64.4206H53.1997C50.8616 64.4206 48.964 62.4456 48.964 60.0022C48.964 57.5588 50.8616 55.5838 53.1997 55.5838H87.9658C90.3081 55.5838 92.2015 57.5588 92.2015 60.0022C92.2015 62.4456 90.3039 64.4206 87.9658 64.4206ZM87.9658 46.7469H53.1997C50.8616 46.7469 48.964 44.7719 48.964 42.3285C48.964 39.8851 50.8616 37.9101 53.1997 37.9101H87.9658C90.3081 37.9101 92.2015 39.8851 92.2015 42.3285C92.2015 44.7719 90.3039 46.7469 87.9658 46.7469Z" fill="black" fill-opacity="0.1"/>
</g>
<path d="M104.197 8.92522V1H106.306C113.266 1 118.996 6.91817 119 14.2897V105.711C119 113.082 113.27 119 106.315 119H13.6896C6.72972 119 1 113.082 1 105.711V14.2892C1 6.91815 6.72972 1 13.6896 1H15.8028V8.92522C15.8028 12.3987 18.5164 15.2803 21.9364 15.2803C25.3622 15.2803 28.0658 12.3971 28.0658 8.92522V1H34.8335V8.92522C34.8335 12.3987 37.5471 15.2803 40.9671 15.2803C44.393 15.2803 47.0965 12.3971 47.0965 8.92522V1H53.8643V8.92522C53.8643 12.3982 56.5731 15.2803 59.9979 15.2803C63.4227 15.2803 66.1315 12.3982 66.1315 8.92522V1H72.8993V8.92522C72.8993 12.3971 75.6028 15.2803 79.0286 15.2803C82.4487 15.2803 85.1622 12.3987 85.1622 8.92522V1H91.93V8.92522C91.93 12.3976 94.6383 15.2803 98.0594 15.2803C101.478 15.2803 104.197 12.3998 104.197 8.92522ZM26.7858 77.6759C26.7858 81.8464 30.0405 85.3035 34.1393 85.3035C38.2381 85.3035 41.4927 81.8464 41.4927 77.6759C41.4927 73.5054 38.2381 70.0483 34.1393 70.0483C30.0405 70.0483 26.7858 73.5054 26.7858 77.6759ZM26.7858 60.0022C26.7858 64.1727 30.0405 67.6298 34.1393 67.6298C38.2381 67.6298 41.4927 64.1727 41.4927 60.0022C41.4927 55.8317 38.2381 52.3746 34.1393 52.3746C30.0405 52.3746 26.7858 55.8317 26.7858 60.0022ZM26.7858 42.3285C26.7858 46.499 30.0405 49.9561 34.1393 49.9561C38.2381 49.9561 41.4927 46.499 41.4927 42.3285C41.4927 38.158 38.2381 34.7009 34.1393 34.7009C30.0405 34.7009 26.7858 38.158 26.7858 42.3285ZM53.1997 83.0943H87.9658C90.8949 83.0943 93.2015 80.632 93.2015 77.6759C93.2015 74.7205 90.8998 72.2575 87.9658 72.2575H53.1997C50.2706 72.2575 47.964 74.7198 47.964 77.6759C47.964 80.632 50.2706 83.0943 53.1997 83.0943ZM53.1997 65.4206H87.9658C90.8949 65.4206 93.2015 62.9583 93.2015 60.0022C93.2015 57.0468 90.8998 54.5838 87.9658 54.5838H53.1997C50.2706 54.5838 47.964 57.0461 47.964 60.0022C47.964 62.9583 50.2706 65.4206 53.1997 65.4206ZM53.1997 47.7469H87.9658C90.8949 47.7469 93.2015 45.2846 93.2015 42.3285C93.2015 39.3731 90.8998 36.9101 87.9658 36.9101H53.1997C50.2706 36.9101 47.964 39.3724 47.964 42.3285C47.964 45.2846 50.2706 47.7469 53.1997 47.7469Z" stroke="white" stroke-width="2"/>
<defs>
<filter id="filter0_i_36_33" x="0" y="0" width="120" height="120" filterUnits="userSpaceOnUse" color-interpolation-filters="sRGB">
<feFlood flood-opacity="0" result="BackgroundImageFix"/>
<feBlend mode="normal" in="SourceGraphic" in2="BackgroundImageFix" result="shape"/>
<feColorMatrix in="SourceAlpha" type="matrix" values="0 0 0 0 0 0 0 0 0 0 0 0 0 0 0 0 0 0 127 0" result="hardAlpha"/>
<feOffset/>
<feGaussianBlur stdDeviation="15.5"/>
<feComposite in2="hardAlpha" operator="arithmetic" k2="-1" k3="1"/>
<feColorMatrix type="matrix" values="0 0 0 0 1 0 0 0 0 1 0 0 0 0 1 0 0 0 0.31 0"/>
<feBlend mode="normal" in2="shape" result="effect1_innerShadow_36_33"/>
</filter>
</defs>
</svg>
