<svg width="25" height="25" viewBox="0 0 36 32" fill="none" xmlns="http://www.w3.org/2000/svg">
<path d="M22.4383 12.6667V24.3333M13.9963 12.6667V24.3333M5.55427 6V25.6667C5.55427 27.5335 5.55427 28.4663 6.01434 29.1793C6.41901 29.8065 7.06427 30.3175 7.85852 30.637C8.76055 31 9.94199 31 12.3014 31H24.1333C26.4926 31 27.6724 31 28.5744 30.637C29.3686 30.3175 30.0161 29.8065 30.4207 29.1793C30.8804 28.467 30.8804 27.535 30.8804 25.6718V6M5.55427 6H9.77528M5.55427 6H1.33325M30.8804 6H26.6593M30.8804 6H35.1014M9.77528 6H26.6593M9.77528 6C9.77528 4.44687 9.77528 3.67068 10.0966 3.0581C10.525 2.24135 11.3462 1.59205 12.3804 1.25373C13.1561 1 14.14 1 16.1068 1H20.3278C22.2946 1 23.2779 1 24.0537 1.25373C25.0879 1.59205 25.9095 2.24135 26.3379 3.0581C26.6591 3.67067 26.6593 4.44687 26.6593 6" stroke="white" stroke-linecap="round" stroke-linejoin="round"/>
</svg>
