<svg width="120" height="120" viewBox="0 0 120 120" fill="none" xmlns="http://www.w3.org/2000/svg">
<g filter="url(#filter0_i_42_72)">
<path d="M60.0102 5.49039V10.217L70.4835 10.2171C72.7594 10.2171 74.6413 12.2775 74.9423 14.9532L74.9843 15.6971L75.0247 46.8109H66.0232L65.9902 21.1952L60.0102 21.1951L60.0134 54.1658L66.0232 54.1588L66.0292 54.1297H75.0367L75.0307 54.1588H104.67L94.3335 41.5431C92.7359 39.5941 92.591 36.5446 93.8987 34.396L94.3345 33.7804C95.9327 31.832 98.4331 31.6554 100.195 33.2502L100.7 33.7817L118.682 55.7208C120.278 57.6681 120.425 60.7141 119.12 62.8628L118.685 63.4784L100.703 85.4599C98.947 87.606 96.0973 87.6099 94.3376 85.4688C92.7379 83.5222 92.5898 80.473 93.8952 78.3223L94.3304 77.706L104.61 65.137L60.0134 65.144L60.0102 98.0494L66.0946 98.0528L66.0532 72.4265H75.0607L75.1036 103.533C75.1074 106.315 73.4135 108.616 71.2143 108.981L70.6029 109.031L60.0102 109.028V114.509C60.0102 117.923 57.4828 120.509 54.7266 119.915L3.71794 108.927C1.56752 108.464 0 106.185 0 103.522V15.7062C0 13.0179 1.59636 10.7253 3.77143 10.2896L54.7801 0.0738706C57.5202 -0.474914 60.0102 2.10378 60.0102 5.49039ZM39.0195 57.789C35.6981 57.789 33.0056 61.0728 33.0056 65.1235C33.0056 69.1742 35.6981 72.458 39.0195 72.458C42.3409 72.458 45.0334 69.1742 45.0334 65.1235C45.0334 61.0728 42.3409 57.789 39.0195 57.789Z" fill="black" fill-opacity="0.04"/>
</g>
<path d="M58.0102 10.217V12.217L60.0101 12.217L70.4835 12.2171C71.4258 12.2171 72.7076 13.1583 72.9489 15.126L72.9844 15.7548L73.0221 44.8109H68.0206L67.9902 21.1927L67.9877 19.1953L65.9903 19.1952L60.0102 19.1951L58.01 19.1951L58.0102 21.1953L58.0134 54.166L58.0136 56.1682L60.0158 56.1658L66.0255 56.1588L67.6538 56.1569L67.6594 56.1297H72.5837L72.5777 56.1588H75.0307H104.67H108.894L106.217 52.8913L95.8805 40.2756L95.8802 40.2753C94.8605 39.0312 94.7217 36.9469 95.5755 35.4888L95.921 35.0008C96.7982 33.9721 97.9376 33.9442 98.804 34.6899L99.199 35.1059L117.136 56.9886C118.154 58.2314 118.294 60.3134 117.442 61.7717L117.093 62.2668L99.1547 84.1935C98.6231 84.8433 98.0216 85.0714 97.5189 85.072C97.0163 85.0727 96.415 84.8465 95.8828 84.1989C94.8622 82.9571 94.7207 80.8731 95.5733 79.4131L95.9232 78.9176L106.158 66.4031L108.83 63.1363L104.609 63.137L60.0131 63.144L58.0136 63.1443L58.0134 65.1438L58.0102 98.0492L58.01 100.048L60.0091 100.049L66.0935 100.053L68.0979 100.054L68.0946 98.0496L68.0564 74.4265H73.0635L73.1036 103.536C73.1064 105.579 71.9163 106.793 70.9514 106.996L70.5212 107.031L60.0108 107.028L58.0102 107.027V109.028V114.509C58.0102 115.731 57.5574 116.718 56.9717 117.317C56.3982 117.904 55.7522 118.09 55.1477 117.96L4.1391 106.972C3.1547 106.76 2 105.518 2 103.522V15.7062C2 13.6884 3.17564 12.4487 4.16419 12.2507L55.1728 2.03493C55.7728 1.91476 56.4151 2.10646 56.9839 2.69559C57.5641 3.29645 58.0102 4.27856 58.0102 5.49039V10.217ZM39.0195 55.789C34.2406 55.789 31.0056 60.3578 31.0056 65.1235C31.0056 69.8892 34.2406 74.458 39.0195 74.458C43.7984 74.458 47.0334 69.8892 47.0334 65.1235C47.0334 60.3578 43.7984 55.789 39.0195 55.789Z" stroke="white" stroke-width="4"/>
<defs>
<filter id="filter0_i_42_72" x="0" y="0" width="120" height="120" filterUnits="userSpaceOnUse" color-interpolation-filters="sRGB">
<feFlood flood-opacity="0" result="BackgroundImageFix"/>
<feBlend mode="normal" in="SourceGraphic" in2="BackgroundImageFix" result="shape"/>
<feColorMatrix in="SourceAlpha" type="matrix" values="0 0 0 0 0 0 0 0 0 0 0 0 0 0 0 0 0 0 127 0" result="hardAlpha"/>
<feOffset/>
<feGaussianBlur stdDeviation="13"/>
<feComposite in2="hardAlpha" operator="arithmetic" k2="-1" k3="1"/>
<feColorMatrix type="matrix" values="0 0 0 0 1 0 0 0 0 1 0 0 0 0 1 0 0 0 1 0"/>
<feBlend mode="normal" in2="shape" result="effect1_innerShadow_42_72"/>
</filter>
</defs>
</svg>
