<svg width="30" height="30" viewBox="0 0 30 30" fill="none" xmlns="http://www.w3.org/2000/svg">
<path d="M18.3906 19.6642L18.3906 19.6642C19.3097 20.2768 20.5514 20.0284 21.1641 19.1094L21.1642 19.1094C21.7768 18.1903 21.5284 16.9486 20.6094 16.3359L20.6094 16.3358L17 13.9296V7.5C17 6.39544 16.1046 5.5 15 5.5C13.8954 5.5 13 6.39544 13 7.5V14.25V14.2794C13 15.3983 13.5592 16.4432 14.4903 17.0639L18.3906 19.6642ZM0.5 15C0.5 6.99187 6.99187 0.5 15 0.5C23.0081 0.5 29.5 6.99187 29.5 15C29.5 23.0081 23.0081 29.5 15 29.5C6.99187 29.5 0.5 23.0081 0.5 15Z" fill="black" fill-opacity="0.1" stroke="white"/>
</svg>
