<svg width="30" height="30" viewBox="0 0 30 30" fill="none" xmlns="http://www.w3.org/2000/svg">
<path d="M10.75 3.33333V3.83333H11.25H18.75H19.25V3.33333V2C19.25 1.22531 19.9765 0.5 21 0.5C22.0235 0.5 22.75 1.22531 22.75 2V3.33333V3.83333H23.25H25.5C27.7662 3.83333 29.5 5.45407 29.5 7.33333V9.5H0.5V7.33333C0.5 5.45408 2.23388 3.83333 4.5 3.83333H6.75H7.25V3.33333V2C7.25 1.22531 7.97651 0.5 9 0.5C10.0235 0.5 10.75 1.22531 10.75 2V3.33333Z" fill="black" fill-opacity="0.1" stroke="white"/>
<path d="M0.5 26.0769V13.5H29.5V26.0769C29.5 27.9053 27.7758 29.5 25.5 29.5H4.5C2.22423 29.5 0.5 27.9053 0.5 26.0769Z" fill="black" fill-opacity="0.1" stroke="white"/>
</svg>
