<svg width="120" height="120" viewBox="0 0 120 120" fill="none" xmlns="http://www.w3.org/2000/svg">
<g filter="url(#filter0_i_37_42)">
<path fill-rule="evenodd" clip-rule="evenodd" d="M20 13.3333C16.3181 13.3333 13.3333 16.3181 13.3333 20V100C13.3333 103.682 16.3181 106.667 20 106.667H66.6667V73.3333C66.6667 69.6513 69.6513 66.6667 73.3333 66.6667H106.667V20C106.667 16.3181 103.682 13.3333 100 13.3333H20ZM97.2387 80H80V97.2387L97.2387 80ZM0 20C0 8.95433 8.95433 0 20 0H100C111.046 0 120 8.95433 120 20V73.3333C120 75.1013 119.297 76.7973 118.047 78.0473L78.0473 118.047C76.7973 119.297 75.1013 120 73.3333 120H20C8.95433 120 0 111.046 0 100V20Z" fill="black" fill-opacity="0.1"/>
</g>
<path d="M66.6667 107.667H67.6667V106.667V73.3333C67.6667 70.2036 70.2036 67.6667 73.3333 67.6667H106.667H107.667V66.6667V20C107.667 15.7659 104.234 12.3333 100 12.3333H20C15.7658 12.3333 12.3333 15.7658 12.3333 20V100C12.3333 104.234 15.7659 107.667 20 107.667H66.6667ZM97.9458 80.7071L99.6529 79H97.2387H80H79V80V97.2387V99.6529L80.7071 97.9458L97.9458 80.7071ZM1 20C1 9.50662 9.50662 1 20 1H100C110.494 1 119 9.50661 119 20V73.3333C119 74.8361 118.403 76.2777 117.34 77.3402L77.3402 117.34C76.2777 118.403 74.8361 119 73.3333 119H20C9.50661 119 1 110.494 1 100V20Z" stroke="white" stroke-width="2"/>
<defs>
<filter id="filter0_i_37_42" x="0" y="0" width="120" height="120" filterUnits="userSpaceOnUse" color-interpolation-filters="sRGB">
<feFlood flood-opacity="0" result="BackgroundImageFix"/>
<feBlend mode="normal" in="SourceGraphic" in2="BackgroundImageFix" result="shape"/>
<feColorMatrix in="SourceAlpha" type="matrix" values="0 0 0 0 0 0 0 0 0 0 0 0 0 0 0 0 0 0 127 0" result="hardAlpha"/>
<feOffset/>
<feGaussianBlur stdDeviation="15.5"/>
<feComposite in2="hardAlpha" operator="arithmetic" k2="-1" k3="1"/>
<feColorMatrix type="matrix" values="0 0 0 0 1 0 0 0 0 1 0 0 0 0 1 0 0 0 0.25 0"/>
<feBlend mode="normal" in2="shape" result="effect1_innerShadow_37_42"/>
</filter>
</defs>
</svg>
