<svg width="120" height="120" viewBox="0 0 120 120" fill="none" xmlns="http://www.w3.org/2000/svg">
<g filter="url(#filter0_i_35_26)">
<path d="M59.7826 57.0736C67.0494 57.0736 74.0186 54.067 79.1569 48.7153C84.2953 43.3637 87.1821 36.1052 87.1821 28.5368C87.1821 20.9684 84.2953 13.7099 79.1569 8.35823C74.0186 3.00655 67.0494 0 59.7826 0C52.5158 0 45.5467 3.00655 40.4083 8.35823C35.2699 13.7099 32.3832 20.9684 32.3832 28.5368C32.3832 36.1052 35.2699 43.3637 40.4083 48.7153C45.5467 54.067 52.5158 57.0736 59.7826 57.0736ZM59.7826 69.6113C23.3533 69.6113 0 90.549 0 100.743V119.779H119.565V100.743C119.565 88.4151 97.4565 69.6113 59.7826 69.6113Z" fill="black" fill-opacity="0.1"/>
</g>
<path d="M78.4356 48.0228C73.4813 53.1827 66.7708 56.0736 59.7826 56.0736C52.7945 56.0736 46.0839 53.1827 41.1296 48.0228C36.174 42.8614 33.3832 35.8528 33.3832 28.5368C33.3832 21.2208 36.174 14.2121 41.1296 9.05082C46.0839 3.89088 52.7945 1 59.7826 1C66.7708 1 73.4813 3.89088 78.4356 9.05082C83.3912 14.2121 86.1821 21.2208 86.1821 28.5368C86.1821 35.8528 83.3912 42.8614 78.4356 48.0228ZM1 100.743C1 98.5341 2.29158 95.5365 4.99439 92.2087C7.6717 88.9123 11.6408 85.409 16.7611 82.202C26.9972 75.7909 41.7594 70.6113 59.7826 70.6113C78.4564 70.6113 93.2181 75.2718 103.281 81.408C108.314 84.4773 112.154 87.9045 114.726 91.2837C117.306 94.6733 118.565 97.9517 118.565 100.743V118.779H1V100.743Z" stroke="white" stroke-width="2"/>
<defs>
<filter id="filter0_i_35_26" x="0" y="0" width="119.565" height="119.779" filterUnits="userSpaceOnUse" color-interpolation-filters="sRGB">
<feFlood flood-opacity="0" result="BackgroundImageFix"/>
<feBlend mode="normal" in="SourceGraphic" in2="BackgroundImageFix" result="shape"/>
<feColorMatrix in="SourceAlpha" type="matrix" values="0 0 0 0 0 0 0 0 0 0 0 0 0 0 0 0 0 0 127 0" result="hardAlpha"/>
<feOffset/>
<feGaussianBlur stdDeviation="15.5"/>
<feComposite in2="hardAlpha" operator="arithmetic" k2="-1" k3="1"/>
<feColorMatrix type="matrix" values="0 0 0 0 1 0 0 0 0 1 0 0 0 0 1 0 0 0 0.19 0"/>
<feBlend mode="normal" in2="shape" result="effect1_innerShadow_35_26"/>
</filter>
</defs>
</svg>
