<svg width="60" height="60" viewBox="0 0 60 60" fill="none" xmlns="http://www.w3.org/2000/svg">
<path d="M30 0C46.5685 0 60 13.4315 60 30C60 46.5685 46.5685 60 30 60C13.4315 60 0 46.5685 0 30C0 13.4315 13.4315 0 30 0ZM20.8258 18.1742L20.6736 18.0375C19.9899 17.4875 19.0101 17.4875 18.3264 18.0375L18.1742 18.1742L18.0375 18.3264C17.4875 19.0101 17.4875 19.9899 18.0375 20.6736L18.1742 20.8258L27.3495 30L18.1742 39.1742L18.0375 39.3264C17.4875 40.0101 17.4875 40.9899 18.0375 41.6736L18.1742 41.8258L18.3264 41.9625C19.0101 42.5125 19.9899 42.5125 20.6736 41.9625L20.8258 41.8258L30 32.6505L39.1742 41.8258L39.3264 41.9625C40.0101 42.5125 40.9899 42.5125 41.6736 41.9625L41.8258 41.8258L41.9625 41.6736C42.5125 40.9899 42.5125 40.0101 41.9625 39.3264L41.8258 39.1742L32.6505 30L41.8258 20.8258L41.9625 20.6736C42.5125 19.9899 42.5125 19.0101 41.9625 18.3264L41.8258 18.1742L41.6736 18.0375C40.9899 17.4875 40.0101 17.4875 39.3264 18.0375L39.1742 18.1742L30 27.3495L20.8258 18.1742Z" fill="white"/>
</svg>
