<svg width="22" height="22" viewBox="0 0 22 22" fill="none" xmlns="http://www.w3.org/2000/svg">
<path d="M1.1766 3.12778C1.03195 2.86143 0.973871 2.55447 1.01085 2.25174C1.04783 1.949 1.17793 1.66638 1.38213 1.44516C1.58633 1.22394 1.85393 1.07574 2.14582 1.02219C2.43771 0.96865 2.73859 1.01258 3.0045 1.14757L20.6202 10.3564C20.7345 10.4163 20.8305 10.5075 20.8974 10.62C20.9645 10.7325 21 10.8618 21 10.9938C21 11.1257 20.9645 11.2551 20.8974 11.3676C20.8305 11.4801 20.7345 11.5714 20.6202 11.6311L3.0045 20.8524C2.73859 20.9874 2.43771 21.0314 2.14582 20.9778C1.85393 20.9243 1.58633 20.776 1.38213 20.5549C1.17793 20.3336 1.04783 20.051 1.01085 19.7483C0.973871 19.4455 1.03195 19.1386 1.1766 18.8722L5.86262 10.9933L1.1766 3.12778Z" stroke="black" stroke-linecap="round" stroke-linejoin="round"/>
</svg>
